<?xml version="1.0" encoding="UTF-8" standalone="no"?>
<!-- Created with Inkscape (http://www.inkscape.org/) -->

<svg
   xmlns:dc="http://purl.org/dc/elements/1.1/"
   xmlns:cc="http://creativecommons.org/ns#"
   xmlns:rdf="http://www.w3.org/1999/02/22-rdf-syntax-ns#"
   xmlns:svg="http://www.w3.org/2000/svg"
   xmlns="http://www.w3.org/2000/svg"
   xmlns:sodipodi="http://sodipodi.sourceforge.net/DTD/sodipodi-0.dtd"
   xmlns:inkscape="http://www.inkscape.org/namespaces/inkscape"
   width="32"
   height="32"
   viewBox="0 0 8.467 8.4679"
   version="1.1"
   id="svg844"
   inkscape:version="0.92.4 (5da689c313, 2019-01-14)"
   sodipodi:docname="sprite.svg"
   inkscape:export-filename="/home/graphite/Workspace/Angular/GeraldPortfolio/src/assets/drawable/sprite.png"
   inkscape:export-xdpi="211.92"
   inkscape:export-ydpi="211.92">
  <defs
     id="defs838" />
  <sodipodi:namedview
     id="base"
     pagecolor="#ffffff"
     bordercolor="#666666"
     borderopacity="1.0"
     inkscape:pageopacity="0.0"
     inkscape:pageshadow="2"
     inkscape:zoom="15.839"
     inkscape:cx="13.628"
     inkscape:cy="16.258"
     inkscape:document-units="px"
     inkscape:current-layer="layer1"
     showgrid="false"
     units="px"
     inkscape:showpageshadow="false"
     inkscape:pagecheckerboard="true"
     width="9.5in"
     inkscape:window-width="1366"
     inkscape:window-height="741"
     inkscape:window-x="0"
     inkscape:window-y="0"
     inkscape:window-maximized="1" />
  <metadata
     id="metadata841">
    <rdf:RDF>
      <cc:Work
         rdf:about="">
        <dc:format>image/svg+xml</dc:format>
        <dc:type
           rdf:resource="http://purl.org/dc/dcmitype/StillImage" />
        <dc:title />
      </cc:Work>
    </rdf:RDF>
  </metadata>
  <g
     inkscape:label="Layer 1"
     inkscape:groupmode="layer"
     id="layer1"
     transform="translate(0,-288.53)">
    <path
       sodipodi:type="spiral"
       style="opacity:1;fill:#cccccc;fill-rule:evenodd;stroke:none;stroke-width:0.26462"
       id="path31"
       sodipodi:cx="3.8507"
       sodipodi:cy="292.96"
       sodipodi:expansion="1"
       sodipodi:revolution="3"
       sodipodi:radius="4.227"
       sodipodi:argument="-18.052"
       sodipodi:t0="0"
       d="m 3.8507,292.96 c 0.148,0.15 -0.1314,0.27 -0.2521,0.25 -0.327,-0.1 -0.3746,-0.5 -0.24,-0.75 0.2409,-0.46 0.8525,-0.5 1.2484,-0.24 0.5809,0.39 0.6252,1.21 0.2278,1.75 -0.5296,0.71 -1.574,0.75 -2.2445,0.22 -0.8438,-0.67 -0.8836,-1.94 -0.2158,-2.74 0.8089,-0.98 2.2995,-1.02 3.2408,-0.21 1.1093,0.95 1.1441,2.66 0.2037,3.74 -1.0858,1.24 -3.0262,1.27 -4.2371,0.19 -1.37594,-1.22 -1.40532,-3.39 -0.1915,-4.73 1.3617,-1.51 3.7533,-1.54 5.2333,-0.19 1.643,1.5 1.667,4.12 0.1794,5.74"
       transform="matrix(1.091,0,0,1.1429,-0.34892,-41.684)" />
  </g>
</svg>
